<?xml version="1.0" encoding="UTF-8" standalone="no"?>
<!DOCTYPE svg PUBLIC "-//W3C//DTD SVG 1.0//EN" "http://www.w3.org/TR/2001/PR-SVG-20010719/DTD/svg10.dtd">
<svg width="17cm" height="11cm" viewBox="-1 17 324 207" xmlns="http://www.w3.org/2000/svg" xmlns:xlink="http://www.w3.org/1999/xlink">
  <line style="fill: none; fill-opacity:0; stroke-width: 2; stroke: #000000" x1="150" y1="110" x2="170" y2="90"/>
  <line style="fill: none; fill-opacity:0; stroke-width: 2; stroke: #000000" x1="100" y1="190" x2="100" y2="210"/>
  <line style="fill: none; fill-opacity:0; stroke-width: 2; stroke: #000000" x1="220" y1="190" x2="220" y2="210"/>
  <text style="fill: #000000;text-anchor:end;font-size:12.8;font-family:sanserif;font-style:normal;font-weight:normal" x="110" y="220">
    <tspan x="110" y="220">-E/2</tspan>
  </text>
  <text style="fill: #000000;text-anchor:start;font-size:12.8;font-family:sanserif;font-style:normal;font-weight:normal" x="210" y="220">
    <tspan x="210" y="220">E/2</tspan>
  </text>
  <text style="fill: #000000;text-anchor:start;font-size:12.8;font-family:sanserif;font-style:normal;font-weight:normal" x="170" y="90">
    <tspan x="170" y="90"></tspan>
  </text>
  <text style="fill: #000000;text-anchor:start;font-size:12.8;font-family:sanserif;font-style:normal;font-weight:normal" x="170" y="90">
    <tspan x="170" y="90">1/E</tspan>
  </text>
  <text style="fill: #000000;text-anchor:end;font-size:35.3788;font-family:sanserif;font-style:normal;font-weight:normal" x="160" y="160">
    <tspan x="160" y="160">A</tspan>
  </text>
  <text style="fill: #000000;text-anchor:start;font-size:18.4458;font-family:sanserif;font-style:normal;font-weight:normal" x="160" y="160">
    <tspan x="160" y="160">d</tspan>
  </text>
  <line style="fill: none; fill-opacity:0; stroke-width: 1; stroke: #000000" x1="100" y1="110" x2="110" y2="100"/>
  <line style="fill: none; fill-opacity:0; stroke-width: 1; stroke: #000000" x1="100" y1="130" x2="130" y2="100"/>
  <line style="fill: none; fill-opacity:0; stroke-width: 1; stroke: #000000" x1="100" y1="150" x2="150" y2="100"/>
  <line style="fill: none; fill-opacity:0; stroke-width: 1; stroke: #000000" x1="100" y1="170" x2="170" y2="100"/>
  <line style="fill: none; fill-opacity:0; stroke-width: 1; stroke: #000000" x1="100" y1="190" x2="190" y2="100"/>
  <line style="fill: none; fill-opacity:0; stroke-width: 1; stroke: #000000" x1="110" y1="200" x2="210" y2="100"/>
  <line style="fill: none; fill-opacity:0; stroke-width: 1; stroke: #000000" x1="130" y1="200" x2="220" y2="110"/>
  <line style="fill: none; fill-opacity:0; stroke-width: 1; stroke: #000000" x1="150" y1="200" x2="220" y2="130"/>
  <line style="fill: none; fill-opacity:0; stroke-width: 1; stroke: #000000" x1="170" y1="200" x2="220" y2="150"/>
  <line style="fill: none; fill-opacity:0; stroke-width: 1; stroke: #000000" x1="190" y1="200" x2="220" y2="170"/>
  <line style="fill: none; fill-opacity:0; stroke-width: 1; stroke: #000000" x1="210" y1="200" x2="220" y2="190"/>
  <polyline style="fill: none; fill-opacity:0; stroke-width: 2; stroke: #ff0000" points="0,200 100,200 100,100 220,100 220,200 300,200 "/>
  <g>
    <line style="fill: none; fill-opacity:0; stroke-width: 2; stroke: #000000" x1="160" y1="200" x2="160" y2="29.7361"/>
    <polygon style="fill: #000000" points="160,22.2361 165,32.2361 160,29.7361 155,32.2361 "/>
    <polygon style="fill: none; fill-opacity:0; stroke-width: 2; stroke: #000000" points="160,22.2361 165,32.2361 160,29.7361 155,32.2361 "/>
  </g>
  <g>
    <line style="fill: none; fill-opacity:0; stroke-width: 2; stroke: #000000" x1="0" y1="200" x2="310.264" y2="200"/>
    <polygon style="fill: #000000" points="317.764,200 307.764,205 310.264,200 307.764,195 "/>
    <polygon style="fill: none; fill-opacity:0; stroke-width: 2; stroke: #000000" points="317.764,200 307.764,205 310.264,200 307.764,195 "/>
  </g>
</svg>
